PathFileType	4	(X/Y/Z)	 2.2Hz3min.trc
DataRate	CameraRate	NumFrames	NumMarkers	Units	OrigDataRate	OrigDataStartFrame	OrigNumFrames
200	200	8	43	m	200	126	1000
Frame#	Time	C7			LSH			RSH			MAN			RASI			LASI			HIPR			HIPL			RPSI			LPSI			COX			RTHI1			RTHI2			RTHI3			RTHI4			RLKN			RMKN			RSHA1			RSHA2			RSHA3			RSHA4			RLMAL			RMMAL			RHEEL			RMET5			RMET1			RTOE			LTHI1			LTHI2			LTHI3			LTHI4			LLKN			LMKN			LSHA1			LSHA2			LSHA3			LSHA4			LLMAL			LMMAL			LHEEL			LMET5			LMET1			LTOE			
		X1	Y1	Z1	X2	Y2	Z2	X3	Y3	Z3	X4	Y4	Z4	X5	Y5	Z5	X6	Y6	Z6	X7	Y7	Z7	X8	Y8	Z8	X9	Y9	Z9	X10	Y10	Z10	X11	Y11	Z11	X12	Y12	Z12	X13	Y13	Z13	X14	Y14	Z14	X15	Y15	Z15	X16	Y16	Z16	X17	Y17	Z17	X18	Y18	Z18	X19	Y19	Z19	X20	Y20	Z20	X21	Y21	Z21	X22	Y22	Z22	X23	Y23	Z23	X24	Y24	Z24	X25	Y25	Z25	X26	Y26	Z26	X27	Y27	Z27	X28	Y28	Z28	X29	Y29	Z29	X30	Y30	Z30	X31	Y31	Z31	X32	Y32	Z32	X33	Y33	Z33	X34	Y34	Z34	X35	Y35	Z35	X36	Y36	Z36	X37	Y37	Z37	X38	Y38	Z38	X39	Y39	Z39	X40	Y40	Z40	X41	Y41	Z41	X42	Y42	Z42	X43	Y43	Z43	
126	0.6300	-0.265339	1.485068	-0.582411	-0.212471	1.452632	-0.786989	-0.186011	1.428172	-0.380742	-0.134203	1.398889	-0.585556	-0.202962	0.952217	-0.467310	-0.199429	0.963495	-0.703265	-0.288094	1.001730	-0.417211	-0.284281	0.996335	-0.748275	-0.387120	0.990340	-0.536474	-0.379521	0.993531	-0.639979	-0.386349	0.990072	-0.587144	-0.255538	0.677881	-0.385133	-0.237404	0.620810	-0.380927	-0.175186	0.637067	-0.373890	-0.185288	0.697796	-0.377650	-0.195737	0.439064	-0.385759	-0.183816	0.428033	-0.515057	-0.315858	0.312702	-0.375627	-0.341053	0.278692	-0.380258	-0.288226	0.248865	-0.375896	-0.269514	0.283704	-0.375899	-0.407235	0.101388	-0.400481	-0.377594	0.096319	-0.490003	-0.473540	0.071700	-0.449622	-0.316918	0.029296	-0.357354	-0.262305	0.044505	-0.437232	-0.235573	0.033437	-0.428700	-0.238484	0.698065	-0.781318	-0.218297	0.639957	-0.783835	-0.155402	0.655524	-0.787890	-0.168082	0.714147	-0.786285	-0.175655	0.444576	-0.773036	-0.157793	0.432759	-0.647858	-0.290894	0.307010	-0.788412	-0.309102	0.266234	-0.782655	-0.260517	0.244073	-0.775065	-0.237739	0.277812	-0.779659	-0.374600	0.100643	-0.773524	-0.362745	0.100674	-0.679880	-0.449209	0.080428	-0.733575	-0.275283	0.029393	-0.793785	-0.245076	0.043960	-0.709243	-0.218412	0.032947	-0.709795	
127	0.6350	-0.265685	1.481041	-0.582608	-0.212576	1.448586	-0.787085	-0.186158	1.424248	-0.380979	-0.134169	1.394592	-0.585736	-0.203428	0.948072	-0.467216	-0.199792	0.959471	-0.703244	-0.289079	0.996441	-0.416627	-0.285363	0.991311	-0.748556	-0.387817	0.985844	-0.536386	-0.380358	0.988997	-0.639894	-0.387118	0.985503	-0.587056	-0.254910	0.674345	-0.384969	-0.236553	0.617357	-0.380713	-0.174397	0.633849	-0.373706	-0.184726	0.694537	-0.377538	-0.194273	0.435836	-0.385684	-0.182400	0.424902	-0.514871	-0.315284	0.310360	-0.376002	-0.340624	0.276470	-0.380654	-0.287986	0.246294	-0.376051	-0.269091	0.281058	-0.376081	-0.407506	0.100069	-0.401114	-0.378095	0.094769	-0.490662	-0.474054	0.069811	-0.450162	-0.317206	0.029223	-0.357285	-0.262408	0.044479	-0.437233	-0.235628	0.033410	-0.428656	-0.237869	0.694433	-0.781551	-0.217427	0.636420	-0.784092	-0.154602	0.652262	-0.788183	-0.167542	0.710828	-0.786560	-0.174226	0.441518	-0.773330	-0.155743	0.429472	-0.648276	-0.290396	0.304849	-0.788257	-0.308776	0.264150	-0.782495	-0.260256	0.241758	-0.775109	-0.237356	0.275400	-0.779724	-0.375307	0.099274	-0.773071	-0.363267	0.099385	-0.679437	-0.449858	0.078578	-0.733063	-0.275589	0.029152	-0.793996	-0.245140	0.043922	-0.709267	-0.218390	0.032941	-0.709877	
128	0.6400	-0.266038	1.477304	-0.582812	-0.212685	1.444833	-0.787189	-0.186299	1.420638	-0.381220	-0.134160	1.390633	-0.585915	-0.203853	0.944194	-0.467141	-0.200120	0.955736	-0.703250	-0.290143	0.991482	-0.416107	-0.286458	0.986639	-0.748751	-0.388457	0.981720	-0.536303	-0.381108	0.984827	-0.639807	-0.387813	0.981325	-0.586972	-0.254201	0.671082	-0.384794	-0.235610	0.614181	-0.380498	-0.173521	0.630928	-0.373540	-0.184092	0.691569	-0.377447	-0.192671	0.432908	-0.385587	-0.180790	0.422036	-0.514687	-0.314588	0.308306	-0.376337	-0.340110	0.274568	-0.381026	-0.287601	0.244013	-0.376199	-0.268538	0.278711	-0.376246	-0.407725	0.098954	-0.401715	-0.378403	0.093474	-0.491256	-0.474418	0.068240	-0.450701	-0.317422	0.029201	-0.357260	-0.262447	0.044456	-0.437238	-0.235635	0.033392	-0.428608	-0.237312	0.691087	-0.781758	-0.216646	0.633155	-0.784317	-0.153879	0.649256	-0.788445	-0.167056	0.707772	-0.786805	-0.172848	0.438714	-0.773593	-0.153694	0.426433	-0.648687	-0.289883	0.302851	-0.788073	-0.308417	0.262228	-0.782303	-0.259969	0.239609	-0.775101	-0.236951	0.273168	-0.779755	-0.375885	0.098041	-0.772588	-0.363556	0.098267	-0.678921	-0.450399	0.076893	-0.732503	-0.275853	0.028983	-0.794155	-0.245157	0.043893	-0.709276	-0.218339	0.032934	-0.709954	
129	0.6450	-0.266373	1.473814	-0.583013	-0.212796	1.441396	-0.787303	-0.186435	1.417354	-0.381465	-0.134178	1.387047	-0.586087	-0.204228	0.940607	-0.467078	-0.200401	0.952314	-0.703271	-0.291265	0.986950	-0.415682	-0.287517	0.982394	-0.748855	-0.389024	0.978007	-0.536225	-0.381736	0.981076	-0.639718	-0.388411	0.977586	-0.586901	-0.253423	0.668114	-0.384608	-0.234577	0.611303	-0.380269	-0.172556	0.628322	-0.373392	-0.183390	0.688916	-0.377376	-0.190943	0.430283	-0.385466	-0.178974	0.419446	-0.514518	-0.313769	0.306556	-0.376631	-0.339488	0.272967	-0.381357	-0.287095	0.242033	-0.376337	-0.267863	0.276667	-0.376394	-0.407842	0.098061	-0.402313	-0.378533	0.092418	-0.491804	-0.474642	0.066960	-0.451248	-0.317576	0.029223	-0.357276	-0.262419	0.044449	-0.437235	-0.235601	0.033378	-0.428552	-0.236825	0.688036	-0.781930	-0.215961	0.630170	-0.784508	-0.153247	0.646516	-0.788672	-0.166636	0.704980	-0.787016	-0.171535	0.436153	-0.773823	-0.151666	0.423648	-0.649083	-0.289359	0.301008	-0.787873	-0.308037	0.260457	-0.782090	-0.259668	0.237621	-0.775040	-0.236539	0.271103	-0.779747	-0.376361	0.096913	-0.772088	-0.363779	0.097178	-0.678418	-0.450844	0.075369	-0.731931	-0.276065	0.028874	-0.794245	-0.245139	0.043870	-0.709268	-0.218270	0.032928	-0.710027	
130	0.6500	-0.266706	1.470689	-0.583224	-0.212869	1.438296	-0.787399	-0.186560	1.414396	-0.381710	-0.134228	1.383855	-0.586248	-0.204543	0.937331	-0.467016	-0.200625	0.949224	-0.703293	-0.292402	0.982932	-0.415373	-0.288494	0.978634	-0.748892	-0.389506	0.974725	-0.536161	-0.382227	0.977769	-0.639639	-0.388896	0.974306	-0.586852	-0.252578	0.665460	-0.384410	-0.233473	0.608735	-0.380021	-0.171524	0.626040	-0.373262	-0.182626	0.686575	-0.377321	-0.189126	0.427962	-0.385327	-0.176983	0.417126	-0.514356	-0.312821	0.305071	-0.376882	-0.338748	0.271646	-0.381652	-0.286491	0.240347	-0.376473	-0.267089	0.274917	-0.376527	-0.407877	0.097388	-0.402894	-0.378511	0.091579	-0.492309	-0.474747	0.065974	-0.451817	-0.317682	0.029270	-0.357327	-0.262338	0.044441	-0.437233	-0.235522	0.033378	-0.428483	-0.236405	0.685282	-0.782064	-0.215362	0.627476	-0.784671	-0.152701	0.644039	-0.788864	-0.166284	0.702461	-0.787184	-0.170306	0.433824	-0.774024	-0.149701	0.421130	-0.649439	-0.288851	0.299320	-0.787663	-0.307669	0.258836	-0.781867	-0.259381	0.235800	-0.774936	-0.236144	0.269202	-0.779703	-0.376762	0.095877	-0.771589	-0.363903	0.096188	-0.677879	-0.451215	0.073979	-0.731354	-0.276249	0.028797	-0.794293	-0.245102	0.043851	-0.709249	-0.218193	0.032922	-0.710096	
131	0.6550	-0.267007	1.467907	-0.583446	-0.212918	1.435550	-0.787486	-0.186676	1.411772	-0.381951	-0.134315	1.381064	-0.586402	-0.204809	0.934401	-0.466956	-0.200781	0.946472	-0.703299	-0.293495	0.979505	-0.415195	-0.289339	0.975408	-0.748871	-0.389894	0.971886	-0.536122	-0.382574	0.974919	-0.639582	-0.389253	0.971469	-0.586820	-0.251693	0.663127	-0.384200	-0.232327	0.606495	-0.379753	-0.170446	0.624083	-0.373139	-0.181825	0.684556	-0.377277	-0.187267	0.425942	-0.385170	-0.174873	0.415067	-0.514202	-0.311780	0.303833	-0.377101	-0.337909	0.270599	-0.381924	-0.285817	0.238963	-0.376608	-0.266242	0.273448	-0.376642	-0.407860	0.096912	-0.403450	-0.378365	0.090937	-0.492775	-0.474742	0.065251	-0.452403	-0.317756	0.029335	-0.357417	-0.262207	0.044426	-0.437230	-0.235399	0.033389	-0.428403	-0.236048	0.682817	-0.782154	-0.214851	0.625054	-0.784791	-0.152229	0.641826	-0.789015	-0.165986	0.700212	-0.787307	-0.169195	0.431711	-0.774191	-0.147836	0.418868	-0.649778	-0.288395	0.297787	-0.787458	-0.307345	0.257370	-0.781646	-0.259138	0.234143	-0.774808	-0.235804	0.267470	-0.779634	-0.377125	0.094921	-0.771127	-0.364075	0.095147	-0.677420	-0.451538	0.072694	-0.730817	-0.276408	0.028747	-0.794318	-0.245062	0.043838	-0.709223	-0.218117	0.032922	-0.710159	
132	0.6600	-0.267307	1.465484	-0.583669	-0.212963	1.433181	-0.787573	-0.186787	1.409497	-0.382171	-0.134421	1.378683	-0.586543	-0.205038	0.931839	-0.466885	-0.200861	0.944081	-0.703288	-0.294491	0.976732	-0.415141	-0.290002	0.972741	-0.748826	-0.390183	0.969461	-0.536110	-0.382778	0.972505	-0.639553	-0.389479	0.969071	-0.586807	-0.250795	0.661129	-0.383978	-0.231184	0.604588	-0.379467	-0.169372	0.622438	-0.373010	-0.181008	0.682856	-0.377233	-0.185425	0.424212	-0.384992	-0.172721	0.413275	-0.514044	-0.310678	0.302851	-0.377304	-0.336994	0.269787	-0.382161	-0.285109	0.237855	-0.376734	-0.265359	0.272247	-0.376740	-0.407807	0.096618	-0.403967	-0.378113	0.090455	-0.493196	-0.474649	0.064760	-0.452994	-0.317803	0.029408	-0.357537	-0.262039	0.044400	-0.437224	-0.235240	0.033411	-0.428315	-0.235740	0.680645	-0.782207	-0.214416	0.622920	-0.784876	-0.151824	0.639869	-0.789119	-0.165724	0.698222	-0.787390	-0.168229	0.429810	-0.774319	-0.146116	0.416865	-0.650076	-0.288023	0.296400	-0.787257	-0.307094	0.256043	-0.781436	-0.258957	0.232648	-0.774672	-0.235536	0.265902	-0.779546	-0.377464	0.094049	-0.770725	-0.364239	0.094187	-0.677004	-0.451830	0.071490	-0.730364	-0.276548	0.028711	-0.794344	-0.245030	0.043828	-0.709194	-0.218051	0.032927	-0.710214	
133	0.6650	-0.267606	1.463364	-0.583877	-0.213040	1.431194	-0.787667	-0.186899	1.407576	-0.382370	-0.134548	1.376703	-0.586679	-0.205195	0.929684	-0.466819	-0.200857	0.942065	-0.703255	-0.295332	0.974629	-0.415202	-0.290449	0.970635	-0.748772	-0.390369	0.967446	-0.536129	-0.382853	0.970514	-0.639556	-0.389590	0.967080	-0.586826	-0.249926	0.659464	-0.383757	-0.230085	0.603011	-0.379176	-0.168337	0.621099	-0.372868	-0.180208	0.681466	-0.377173	-0.183681	0.422777	-0.384803	-0.170610	0.411751	-0.513888	-0.309580	0.302101	-0.377468	-0.336051	0.269195	-0.382377	-0.284404	0.237013	-0.376848	-0.264483	0.271309	-0.376810	-0.407724	0.096450	-0.404450	-0.377794	0.090128	-0.493584	-0.474491	0.064462	-0.453575	-0.317833	0.029480	-0.357680	-0.261844	0.044358	-0.437213	-0.235060	0.033442	-0.428222	-0.235481	0.678768	-0.782226	-0.214056	0.621074	-0.784927	-0.151489	0.638154	-0.789178	-0.165495	0.696485	-0.787427	-0.167444	0.428106	-0.774400	-0.144616	0.415089	-0.650312	-0.287750	0.295149	-0.787080	-0.306930	0.254841	-0.781250	-0.258848	0.231313	-0.774536	-0.235353	0.264495	-0.779439	-0.377786	0.093240	-0.770400	-0.364455	0.093244	-0.676696	-0.452102	0.070369	-0.730027	-0.276643	0.028692	-0.794369	-0.245015	0.043820	-0.709163	-0.218004	0.032935	-0.710259	
